<?xml version="1.0" encoding="UTF-8" standalone="no"?>
<!DOCTYPE svg PUBLIC "-//W3C//DTD SVG 1.1//EN"
 "http://www.w3.org/Graphics/SVG/1.1/DTD/svg11.dtd">
<!-- Generated by graphviz version 2.47.0 (20210316.0004)
 -->
<!-- Title: dependencies Pages: 1 -->
<svg width="792pt" height="211pt"
 viewBox="0.00 0.00 792.00 211.00" xmlns="http://www.w3.org/2000/svg" xmlns:xlink="http://www.w3.org/1999/xlink">
<g id="graph0" class="graph" transform="scale(1 1) rotate(0) translate(4 207)">
<title>dependencies</title>
<polygon fill="white" stroke="transparent" points="-4,4 -4,-207 788,-207 788,4 -4,4"/>
<text text-anchor="start" x="371.01" y="-42.4" font-family="sans-serif" font-weight="bold" font-size="14.00">Legend</text>
<polygon fill="#ffffb3" stroke="transparent" points="158,-10 158,-30 178,-30 178,-10 158,-10"/>
<text text-anchor="start" x="181.63" y="-15.4" font-family="sans-serif" font-size="14.00"> &#160;Declarations</text>
<polygon fill="#8dd3c7" stroke="transparent" points="271,-10 271,-30 291,-30 291,-10 271,-10"/>
<text text-anchor="start" x="294.73" y="-15.4" font-family="sans-serif" font-size="14.00"> &#160;Module</text>
<polygon fill="#80b1d3" stroke="transparent" points="357,-10 357,-30 377,-30 377,-10 357,-10"/>
<text text-anchor="start" x="380.78" y="-15.4" font-family="sans-serif" font-size="14.00"> &#160;Bootstrap</text>
<polygon fill="#fdb462" stroke="transparent" points="454,-10 454,-30 474,-30 474,-10 454,-10"/>
<text text-anchor="start" x="477.67" y="-15.4" font-family="sans-serif" font-size="14.00"> &#160;Providers</text>
<polygon fill="#fb8072" stroke="transparent" points="550,-10 550,-30 570,-30 570,-10 550,-10"/>
<text text-anchor="start" x="573.73" y="-15.4" font-family="sans-serif" font-size="14.00"> &#160;Exports</text>
<g id="clust1" class="cluster">
<title>cluster_AppModule</title>
<polygon fill="none" stroke="black" stroke-dasharray="1,5" points="8,-70 8,-195 776,-195 776,-70 8,-70"/>
</g>
<g id="clust6" class="cluster">
<title>cluster_AppModule_providers</title>
<polygon fill="none" stroke="black" points="288,-78 288,-130 768,-130 768,-78 288,-78"/>
</g>
<g id="clust3" class="cluster">
<title>cluster_AppModule_imports</title>
<polygon fill="none" stroke="black" points="16,-78 16,-130 280,-130 280,-78 16,-78"/>
</g>
<!-- BalanceModule -->
<g id="node1" class="node">
<title>BalanceModule</title>
<polygon fill="#8dd3c7" stroke="black" points="272.14,-122 269.14,-126 248.14,-126 245.14,-122 167.86,-122 167.86,-86 272.14,-86 272.14,-122"/>
<text text-anchor="middle" x="220" y="-99.8" font-family="Times,serif" font-size="14.00">BalanceModule</text>
</g>
<!-- AppModule -->
<g id="node3" class="node">
<title>AppModule</title>
<polygon fill="#8dd3c7" stroke="black" points="423.66,-187 420.66,-191 399.66,-191 396.66,-187 340.34,-187 340.34,-151 423.66,-151 423.66,-187"/>
<text text-anchor="middle" x="382" y="-164.8" font-family="Times,serif" font-size="14.00">AppModule</text>
</g>
<!-- BalanceModule&#45;&gt;AppModule -->
<g id="edge1" class="edge">
<title>BalanceModule&#45;&gt;AppModule</title>
<path fill="none" stroke="black" d="M220,-122.02C220,-139.37 220,-163 220,-163 220,-163 330.28,-163 330.28,-163"/>
<polygon fill="black" stroke="black" points="330.28,-166.5 340.28,-163 330.28,-159.5 330.28,-166.5"/>
</g>
<!-- TransactionModule -->
<g id="node2" class="node">
<title>TransactionModule</title>
<polygon fill="#8dd3c7" stroke="black" points="149.63,-122 146.63,-126 125.63,-126 122.63,-122 24.37,-122 24.37,-86 149.63,-86 149.63,-122"/>
<text text-anchor="middle" x="87" y="-99.8" font-family="Times,serif" font-size="14.00">TransactionModule</text>
</g>
<!-- TransactionModule&#45;&gt;AppModule -->
<g id="edge2" class="edge">
<title>TransactionModule&#45;&gt;AppModule</title>
<path fill="none" stroke="black" d="M87,-122.28C87,-143.32 87,-175 87,-175 87,-175 330.05,-175 330.05,-175"/>
<polygon fill="black" stroke="black" points="330.05,-178.5 340.05,-175 330.05,-171.5 330.05,-178.5"/>
</g>
<!-- AppService -->
<g id="node4" class="node">
<title>AppService</title>
<ellipse fill="#fdb462" stroke="black" cx="703" cy="-104" rx="56.74" ry="18"/>
<text text-anchor="middle" x="703" y="-99.8" font-family="Times,serif" font-size="14.00">AppService</text>
</g>
<!-- AppService&#45;&gt;AppModule -->
<g id="edge3" class="edge">
<title>AppService&#45;&gt;AppModule</title>
<path fill="none" stroke="black" d="M703,-122.28C703,-143.32 703,-175 703,-175 703,-175 433.97,-175 433.97,-175"/>
<polygon fill="black" stroke="black" points="433.97,-171.5 423.97,-175 433.97,-178.5 433.97,-171.5"/>
</g>
<!-- BalanceService -->
<g id="node5" class="node">
<title>BalanceService</title>
<ellipse fill="#fdb462" stroke="black" cx="557" cy="-104" rx="71.18" ry="18"/>
<text text-anchor="middle" x="557" y="-99.8" font-family="Times,serif" font-size="14.00">BalanceService</text>
</g>
<!-- BalanceService&#45;&gt;AppModule -->
<g id="edge4" class="edge">
<title>BalanceService&#45;&gt;AppModule</title>
<path fill="none" stroke="black" d="M557,-122.02C557,-139.37 557,-163 557,-163 557,-163 433.92,-163 433.92,-163"/>
<polygon fill="black" stroke="black" points="433.92,-159.5 423.92,-163 433.92,-166.5 433.92,-159.5"/>
</g>
<!-- TransactionService -->
<g id="node6" class="node">
<title>TransactionService</title>
<ellipse fill="#fdb462" stroke="black" cx="382" cy="-104" rx="85.65" ry="18"/>
<text text-anchor="middle" x="382" y="-99.8" font-family="Times,serif" font-size="14.00">TransactionService</text>
</g>
<!-- TransactionService&#45;&gt;AppModule -->
<g id="edge5" class="edge">
<title>TransactionService&#45;&gt;AppModule</title>
<path fill="none" stroke="black" d="M382,-122.11C382,-122.11 382,-140.99 382,-140.99"/>
<polygon fill="black" stroke="black" points="378.5,-140.99 382,-150.99 385.5,-140.99 378.5,-140.99"/>
</g>
</g>
</svg>
