<?xml version="1.0" encoding="UTF-8" standalone="no"?>
<!DOCTYPE svg PUBLIC "-//W3C//DTD SVG 1.1//EN"
 "http://www.w3.org/Graphics/SVG/1.1/DTD/svg11.dtd">
<!-- Generated by graphviz version 2.47.0 (20210316.0004)
 -->
<!-- Title: dependencies Pages: 1 -->
<svg width="504pt" height="211pt"
 viewBox="0.00 0.00 504.00 211.00" xmlns="http://www.w3.org/2000/svg" xmlns:xlink="http://www.w3.org/1999/xlink">
<g id="graph0" class="graph" transform="scale(1 1) rotate(0) translate(4 207)">
<title>dependencies</title>
<polygon fill="white" stroke="transparent" points="-4,4 -4,-207 500,-207 500,4 -4,4"/>
<text text-anchor="start" x="227.01" y="-42.4" font-family="sans-serif" font-weight="bold" font-size="14.00">Legend</text>
<polygon fill="#ffffb3" stroke="transparent" points="14,-10 14,-30 34,-30 34,-10 14,-10"/>
<text text-anchor="start" x="37.63" y="-15.4" font-family="sans-serif" font-size="14.00"> &#160;Declarations</text>
<polygon fill="#8dd3c7" stroke="transparent" points="127,-10 127,-30 147,-30 147,-10 127,-10"/>
<text text-anchor="start" x="150.73" y="-15.4" font-family="sans-serif" font-size="14.00"> &#160;Module</text>
<polygon fill="#80b1d3" stroke="transparent" points="213,-10 213,-30 233,-30 233,-10 213,-10"/>
<text text-anchor="start" x="236.78" y="-15.4" font-family="sans-serif" font-size="14.00"> &#160;Bootstrap</text>
<polygon fill="#fdb462" stroke="transparent" points="310,-10 310,-30 330,-30 330,-10 310,-10"/>
<text text-anchor="start" x="333.67" y="-15.4" font-family="sans-serif" font-size="14.00"> &#160;Providers</text>
<polygon fill="#fb8072" stroke="transparent" points="406,-10 406,-30 426,-30 426,-10 406,-10"/>
<text text-anchor="start" x="429.73" y="-15.4" font-family="sans-serif" font-size="14.00"> &#160;Exports</text>
<g id="clust1" class="cluster">
<title>cluster_BalanceModule</title>
<polygon fill="none" stroke="black" stroke-dasharray="1,5" points="86,-70 86,-195 410,-195 410,-70 86,-70"/>
</g>
<g id="clust3" class="cluster">
<title>cluster_BalanceModule_imports</title>
<polygon fill="none" stroke="black" points="260,-78 260,-130 402,-130 402,-78 260,-78"/>
</g>
<g id="clust6" class="cluster">
<title>cluster_BalanceModule_providers</title>
<polygon fill="none" stroke="black" points="94,-78 94,-130 252,-130 252,-78 94,-78"/>
</g>
<!-- TransactionModule -->
<g id="node1" class="node">
<title>TransactionModule</title>
<polygon fill="#8dd3c7" stroke="black" points="393.63,-122 390.63,-126 369.63,-126 366.63,-122 268.37,-122 268.37,-86 393.63,-86 393.63,-122"/>
<text text-anchor="middle" x="331" y="-99.8" font-family="Times,serif" font-size="14.00">TransactionModule</text>
</g>
<!-- BalanceModule -->
<g id="node2" class="node">
<title>BalanceModule</title>
<polygon fill="#8dd3c7" stroke="black" points="304.14,-187 301.14,-191 280.14,-191 277.14,-187 199.86,-187 199.86,-151 304.14,-151 304.14,-187"/>
<text text-anchor="middle" x="252" y="-164.8" font-family="Times,serif" font-size="14.00">BalanceModule</text>
</g>
<!-- TransactionModule&#45;&gt;BalanceModule -->
<g id="edge1" class="edge">
<title>TransactionModule&#45;&gt;BalanceModule</title>
<path fill="none" stroke="black" d="M286.25,-122.11C286.25,-122.11 286.25,-140.99 286.25,-140.99"/>
<polygon fill="black" stroke="black" points="282.75,-140.99 286.25,-150.99 289.75,-140.99 282.75,-140.99"/>
</g>
<!-- BalanceService -->
<g id="node3" class="node">
<title>BalanceService</title>
<ellipse fill="#fdb462" stroke="black" cx="173" cy="-104" rx="71.18" ry="18"/>
<text text-anchor="middle" x="173" y="-99.8" font-family="Times,serif" font-size="14.00">BalanceService</text>
</g>
<!-- BalanceService&#45;&gt;BalanceModule -->
<g id="edge2" class="edge">
<title>BalanceService&#45;&gt;BalanceModule</title>
<path fill="none" stroke="black" d="M221.89,-117.15C221.89,-117.15 221.89,-140.69 221.89,-140.69"/>
<polygon fill="black" stroke="black" points="218.39,-140.69 221.89,-150.69 225.39,-140.69 218.39,-140.69"/>
</g>
</g>
</svg>
