<?xml version="1.0" encoding="UTF-8" standalone="no"?>
<!DOCTYPE svg PUBLIC "-//W3C//DTD SVG 1.1//EN"
 "http://www.w3.org/Graphics/SVG/1.1/DTD/svg11.dtd">
<!-- Generated by graphviz version 2.47.0 (20210316.0004)
 -->
<!-- Title: dependencies Pages: 1 -->
<svg width="688pt" height="341pt"
 viewBox="0.00 0.00 688.00 341.00" xmlns="http://www.w3.org/2000/svg" xmlns:xlink="http://www.w3.org/1999/xlink">
<g id="graph0" class="graph" transform="scale(1 1) rotate(0) translate(4 337)">
<title>dependencies</title>
<polygon fill="white" stroke="transparent" points="-4,4 -4,-337 684,-337 684,4 -4,4"/>
<text text-anchor="start" x="319.01" y="-42.4" font-family="sans-serif" font-weight="bold" font-size="14.00">Legend</text>
<polygon fill="#ffffb3" stroke="transparent" points="106,-10 106,-30 126,-30 126,-10 106,-10"/>
<text text-anchor="start" x="129.63" y="-15.4" font-family="sans-serif" font-size="14.00"> &#160;Declarations</text>
<polygon fill="#8dd3c7" stroke="transparent" points="219,-10 219,-30 239,-30 239,-10 219,-10"/>
<text text-anchor="start" x="242.73" y="-15.4" font-family="sans-serif" font-size="14.00"> &#160;Module</text>
<polygon fill="#80b1d3" stroke="transparent" points="305,-10 305,-30 325,-30 325,-10 305,-10"/>
<text text-anchor="start" x="328.78" y="-15.4" font-family="sans-serif" font-size="14.00"> &#160;Bootstrap</text>
<polygon fill="#fdb462" stroke="transparent" points="402,-10 402,-30 422,-30 422,-10 402,-10"/>
<text text-anchor="start" x="425.67" y="-15.4" font-family="sans-serif" font-size="14.00"> &#160;Providers</text>
<polygon fill="#fb8072" stroke="transparent" points="498,-10 498,-30 518,-30 518,-10 498,-10"/>
<text text-anchor="start" x="521.73" y="-15.4" font-family="sans-serif" font-size="14.00"> &#160;Exports</text>
<g id="clust1" class="cluster">
<title>cluster_AppModule</title>
<polygon fill="none" stroke="black" stroke-dasharray="1,5" points="8,-70 8,-325 504,-325 504,-70 8,-70"/>
</g>
<g id="clust3" class="cluster">
<title>cluster_AppModule_imports</title>
<polygon fill="none" stroke="black" points="253,-143 253,-260 395,-260 395,-143 253,-143"/>
</g>
<g id="clust6" class="cluster">
<title>cluster_AppModule_providers</title>
<polygon fill="none" stroke="black" points="16,-78 16,-130 496,-130 496,-78 16,-78"/>
</g>
<g id="clust13" class="cluster">
<title>cluster_TransactionModule</title>
<polygon fill="none" stroke="black" stroke-dasharray="1,5" points="512,-200 512,-268 672,-268 672,-200 512,-200"/>
</g>
<g id="clust16" class="cluster">
<title>cluster_TransactionModule_exports</title>
<polygon fill="none" stroke="black" points="520,-208 520,-260 664,-260 664,-208 520,-208"/>
</g>
<!-- BalanceModule -->
<g id="node1" class="node">
<title>BalanceModule</title>
<polygon fill="#8dd3c7" stroke="black" points="365.14,-252 362.14,-256 341.14,-256 338.14,-252 260.86,-252 260.86,-216 365.14,-216 365.14,-252"/>
<text text-anchor="middle" x="313" y="-229.8" font-family="Times,serif" font-size="14.00">BalanceModule</text>
</g>
<!-- AppModule -->
<g id="node3" class="node">
<title>AppModule</title>
<polygon fill="#8dd3c7" stroke="black" points="354.66,-317 351.66,-321 330.66,-321 327.66,-317 271.34,-317 271.34,-281 354.66,-281 354.66,-317"/>
<text text-anchor="middle" x="313" y="-294.8" font-family="Times,serif" font-size="14.00">AppModule</text>
</g>
<!-- BalanceModule&#45;&gt;AppModule -->
<g id="edge1" class="edge">
<title>BalanceModule&#45;&gt;AppModule</title>
<path fill="none" stroke="black" d="M313,-252.11C313,-252.11 313,-270.99 313,-270.99"/>
<polygon fill="black" stroke="black" points="309.5,-270.99 313,-280.99 316.5,-270.99 309.5,-270.99"/>
</g>
<!-- TransactionModule -->
<g id="node2" class="node">
<title>TransactionModule</title>
<polygon fill="#8dd3c7" stroke="black" points="386.63,-187 383.63,-191 362.63,-191 359.63,-187 261.37,-187 261.37,-151 386.63,-151 386.63,-187"/>
<text text-anchor="middle" x="324" y="-164.8" font-family="Times,serif" font-size="14.00">TransactionModule</text>
</g>
<!-- TransactionModule&#45;&gt;BalanceModule -->
<g id="edge6" class="edge">
<title>TransactionModule&#45;&gt;BalanceModule</title>
<path fill="none" stroke="black" d="M313.25,-187.11C313.25,-187.11 313.25,-205.99 313.25,-205.99"/>
<polygon fill="black" stroke="black" points="309.75,-205.99 313.25,-215.99 316.75,-205.99 309.75,-205.99"/>
</g>
<!-- TransactionModule&#45;&gt;AppModule -->
<g id="edge2" class="edge">
<title>TransactionModule&#45;&gt;AppModule</title>
<path fill="none" stroke="black" d="M372.48,-187.03C372.48,-221.42 372.48,-293 372.48,-293 372.48,-293 364.96,-293 364.96,-293"/>
<polygon fill="black" stroke="black" points="364.96,-289.5 354.96,-293 364.96,-296.5 364.96,-289.5"/>
</g>
<!-- TransactionService  -->
<g id="node7" class="node">
<title>TransactionService </title>
<polygon fill="#fb8072" stroke="black" points="655.56,-252 528.44,-252 528.44,-216 655.56,-216 655.56,-252"/>
<text text-anchor="middle" x="592" y="-229.8" font-family="Times,serif" font-size="14.00">TransactionService </text>
</g>
<!-- TransactionModule&#45;&gt;TransactionService  -->
<g id="edge8" class="edge">
<title>TransactionModule&#45;&gt;TransactionService </title>
<path fill="none" stroke="black" stroke-dasharray="5,2" d="M379.65,-187.11C379.65,-206.34 379.65,-234 379.65,-234 379.65,-234 518.29,-234 518.29,-234"/>
<polygon fill="black" stroke="black" points="518.29,-237.5 528.29,-234 518.29,-230.5 518.29,-237.5"/>
</g>
<!-- AppService -->
<g id="node4" class="node">
<title>AppService</title>
<ellipse fill="#fdb462" stroke="black" cx="81" cy="-104" rx="56.74" ry="18"/>
<text text-anchor="middle" x="81" y="-99.8" font-family="Times,serif" font-size="14.00">AppService</text>
</g>
<!-- AppService&#45;&gt;AppModule -->
<g id="edge3" class="edge">
<title>AppService&#45;&gt;AppModule</title>
<path fill="none" stroke="black" d="M81,-122.19C81,-171.67 81,-305 81,-305 81,-305 261.26,-305 261.26,-305"/>
<polygon fill="black" stroke="black" points="261.26,-308.5 271.26,-305 261.26,-301.5 261.26,-308.5"/>
</g>
<!-- BalanceService -->
<g id="node5" class="node">
<title>BalanceService</title>
<ellipse fill="#fdb462" stroke="black" cx="227" cy="-104" rx="71.18" ry="18"/>
<text text-anchor="middle" x="227" y="-99.8" font-family="Times,serif" font-size="14.00">BalanceService</text>
</g>
<!-- BalanceService&#45;&gt;BalanceModule -->
<g id="edge7" class="edge">
<title>BalanceService&#45;&gt;BalanceModule</title>
<path fill="none" stroke="black" d="M225.76,-122.08C225.76,-157.8 225.76,-234 225.76,-234 225.76,-234 250.74,-234 250.74,-234"/>
<polygon fill="black" stroke="black" points="250.74,-237.5 260.74,-234 250.74,-230.5 250.74,-237.5"/>
</g>
<!-- BalanceService&#45;&gt;AppModule -->
<g id="edge4" class="edge">
<title>BalanceService&#45;&gt;AppModule</title>
<path fill="none" stroke="black" d="M190.83,-119.79C190.83,-165.21 190.83,-293 190.83,-293 190.83,-293 261.3,-293 261.3,-293"/>
<polygon fill="black" stroke="black" points="261.3,-296.5 271.3,-293 261.3,-289.5 261.3,-296.5"/>
</g>
<!-- TransactionService -->
<g id="node6" class="node">
<title>TransactionService</title>
<ellipse fill="#fdb462" stroke="black" cx="402" cy="-104" rx="85.65" ry="18"/>
<text text-anchor="middle" x="402" y="-99.8" font-family="Times,serif" font-size="14.00">TransactionService</text>
</g>
<!-- TransactionService&#45;&gt;TransactionModule -->
<g id="edge9" class="edge">
<title>TransactionService&#45;&gt;TransactionModule</title>
<path fill="none" stroke="black" d="M351.62,-118.75C351.62,-118.75 351.62,-140.59 351.62,-140.59"/>
<polygon fill="black" stroke="black" points="348.12,-140.59 351.62,-150.59 355.12,-140.59 348.12,-140.59"/>
</g>
<!-- TransactionService&#45;&gt;AppModule -->
<g id="edge5" class="edge">
<title>TransactionService&#45;&gt;AppModule</title>
<path fill="none" stroke="black" d="M437.2,-120.45C437.2,-168.45 437.2,-305 437.2,-305 437.2,-305 364.7,-305 364.7,-305"/>
<polygon fill="black" stroke="black" points="364.7,-301.5 354.7,-305 364.7,-308.5 364.7,-301.5"/>
</g>
</g>
</svg>
